<svg xmlns="http://www.w3.org/2000/svg" viewBox="0 0 24 24" width="48" height="48" fill="none">
  <path fill="#25D366" d="M12 0C5.373 0 0 5.373 0 12c0 2.119.555 4.109 1.526 5.834L0 24l6.342-1.492A11.94 11.94 0 0 0 12 24c6.627 0 12-5.373 12-12S18.627 0 12 0z"/>
  <path fill="#FFF" d="M18.257 14.88c-.287-.143-1.696-.837-1.958-.933-.263-.095-.454-.143-.646.143-.19.288-.74 1.01-.908 1.202-.167.192-.335.215-.622.072a7.848 7.848 0 0 1-2.31-1.425 8.653 8.653 0 0 1-1.6-1.993c-.168-.288-.018-.444.126-.587.13-.129.287-.335.43-.502.144-.168.192-.288.288-.479.095-.192.048-.36-.024-.502-.072-.144-.646-1.556-.885-2.13-.234-.56-.472-.483-.646-.492h-.551c-.19 0-.502.072-.765.36-.263.287-1.005.982-1.005 2.394 0 1.412 1.029 2.776 1.172 2.968.144.192 2.025 3.093 4.907 4.337 2.882 1.244 2.882.829 3.408.78.526-.048 1.696-.693 1.935-1.362.239-.67.239-1.244.168-1.363-.072-.119-.263-.191-.55-.335z"/>
</svg>
